<svg id="Layer_1" data-name="Layer 1" xmlns="http://www.w3.org/2000/svg" viewBox="0 0 300 150"><defs><style>.cls-1,.cls-2{fill:#1a1a1a;}.cls-1{fill-rule:evenodd;}</style></defs><path class="cls-1" d="M102.88,70.1c0-5.77,5.06-8.9,11.1-8.9a18,18,0,0,1,9.72,2.65v5.72a15.33,15.33,0,0,0-9.6-3.52c-3.32,0-5.8,1.28-5.8,3.94,0,2.4,1.56,3.36,4.3,4.33l5.31,1.92c5.14,1.86,7.5,4.75,7.5,9.5,0,6-5.1,9.28-11.8,9.28a18.82,18.82,0,0,1-10.45-2.87V86.32a16.63,16.63,0,0,0,10.45,3.79c3.75,0,6.39-1.33,6.39-4.27,0-2.56-1.68-3.56-4.63-4.69l-4.76-1.7C106.22,77.84,102.88,75.49,102.88,70.1Z"/><rect class="cls-2" x="139.88" y="61.75" width="5.59" height="32.76"/><rect class="cls-2" x="39.18" y="61.75" width="5.59" height="32.76"/><path class="cls-1" d="M167.38,66.66h6.83c6.91,0,10.61,4.42,10.61,11.47s-3.7,11.43-10.61,11.43h-6.83Zm-5.58-4.91V94.52h12.62c9.71,0,16-6.41,16-16.39s-6.28-16.38-16-16.38Z"/><polygon class="cls-1" points="202.22 61.75 202.22 94.52 222.18 94.52 222.18 89.56 207.69 89.56 207.69 79.39 220.68 79.39 220.68 74.54 207.69 74.54 207.69 66.66 222.18 66.66 222.18 61.75 202.22 61.75"/><path class="cls-1" d="M244.44,66.56h6.25c3.71,0,5.8,2,5.8,5s-2.09,5-5.8,5h-6.25Zm-5.57-4.81V94.52h5.57V81.22h4l11.46,13.3h6.34L254.36,81c5.2-.81,7.64-4,7.64-9.44,0-6.42-4.4-9.83-11.2-9.83Z"/><path class="cls-1" d="M92.47,19.66c0,5.48,3.36,7.87,7.79,9.49l4.81,1.74c3,1.14,4.64,2.17,4.64,4.77,0,3-2.64,4.34-6.43,4.34a16.66,16.66,0,0,1-10.53-3.85v5.91A18.91,18.91,0,0,0,103.28,45c6.76,0,11.89-3.37,11.89-9.44,0-4.82-2.37-7.75-7.56-9.65L102.26,24c-2.76-1-4.33-1.95-4.33-4.39,0-2.72,2.49-4,5.84-4a15.36,15.36,0,0,1,9.67,3.58v-5.8a17.78,17.78,0,0,0-9.78-2.71c-6.11,0-11.19,3.2-11.19,9.05"/><path class="cls-1" d="M261.38,19.64c0,5.48,3.35,7.86,7.78,9.49L274,30.87c3,1.13,4.65,2.17,4.65,4.77,0,3-2.65,4.33-6.43,4.33a16.65,16.65,0,0,1-10.54-3.85V42A18.89,18.89,0,0,0,272.19,45c6.76,0,11.89-3.36,11.89-9.43,0-4.83-2.38-7.76-7.57-9.65l-5.35-1.95c-2.75-1-4.32-2-4.32-4.4,0-2.71,2.49-4,5.84-4a15.33,15.33,0,0,1,9.67,3.58V13.3a17.81,17.81,0,0,0-9.78-2.71c-6.11,0-11.19,3.2-11.19,9.05"/><path class="cls-1" d="M227.44,19.64c0,5.48,3.35,7.86,7.78,9.49L240,30.87c3,1.13,4.65,2.17,4.65,4.77,0,3-2.65,4.33-6.43,4.33a16.63,16.63,0,0,1-10.54-3.85V42A18.87,18.87,0,0,0,238.25,45c6.75,0,11.89-3.36,11.89-9.43,0-4.83-2.38-7.76-7.57-9.65l-5.35-1.95c-2.76-1-4.32-2-4.32-4.4,0-2.71,2.48-4,5.83-4a15.35,15.35,0,0,1,9.68,3.58V13.3a17.83,17.83,0,0,0-9.78-2.71c-6.11,0-11.19,3.2-11.19,9.05"/><polygon class="cls-1" points="194.52 11.15 194.52 44.44 214.62 44.44 214.62 39.41 200.03 39.41 200.03 29.08 213.12 29.08 213.12 24.15 200.03 24.15 200.03 16.14 214.62 16.14 214.62 11.15 194.52 11.15"/><path class="cls-1" d="M22.38,29.8h7.13c3.79,0,5.84,1.85,5.84,4.88s-2.05,4.88-5.84,4.88H22.38Zm0-13.77h6.11c3.83,0,5.89,1.36,5.89,4.5s-2.06,4.61-5.89,4.61H22.38Zm-5.46-4.88V44.44h12.7c6.92,0,11.24-3.3,11.24-9.54a8.05,8.05,0,0,0-5.4-7.64c2.43-.87,4.32-3.48,4.32-7,0-6-4.32-9.06-11.24-9.06Z"/><rect class="cls-2" x="129.64" y="11.15" width="5.62" height="33.29"/><path class="cls-1" d="M73.89,11.15V30.56c0,6.4-2.7,9.38-7.67,9.38s-7.68-3-7.68-9.38V11.15H52.92v20c0,9.16,5.41,13.83,13.3,13.83s13.29-4.67,13.29-13.78V11.15Z"/><polygon class="cls-1" points="174.1 11.15 174.1 32.44 151.29 10.63 151.29 44.44 156.71 44.44 156.71 22.79 179.5 44.96 179.5 11.15 174.1 11.15"/><polygon class="cls-1" points="60.79 94.51 66.17 94.51 66.17 73.2 88.8 95.02 88.8 61.75 83.44 61.75 83.44 82.7 60.79 61.24 60.79 94.51"/><path class="cls-2" d="M86.33,132.1H74.52l-2.42,6.72H68.65l9.54-26.37h4.5l9.58,26.37H88.74Zm-1-2.9-1.23-3.45c-1.82-5-3-8.62-3.71-10.74-.41,1.34-.9,2.9-1.53,4.72s-1.07,3.12-1.33,3.86l-.78,2.19-1.23,3.42Z"/><path class="cls-2" d="M120.12,115.31H106v9.06h13v2.86H106v11.59h-3.45V112.45h17.56Z"/><path class="cls-2" d="M148,138.82l-7.06-10.59h-6.17v10.59H131.3V112.45h11.1c4.94,0,8.55,3,8.55,7.87A7.42,7.42,0,0,1,144.6,128l7.24,10.81Zm-13.23-13.45h7.1c3.53,0,5.68-1.78,5.68-5.05s-2.19-5-5.72-5h-7.06Z"/><path class="cls-2" d="M166.47,138.82H163V112.45h3.46Z"/><path class="cls-2" d="M199.93,115.64,198,118c-2.82-2.37-4.9-3.12-7.31-3.12-5.65,0-9.18,4.46-9.18,10.77s3.6,10.78,8.95,10.78c3,0,4.94-1.16,7.91-3.87l2.08,2.31c-3.38,3.3-6.09,4.56-9.91,4.56-7.8,0-12.52-5.79-12.52-13.81s4.64-13.74,12.7-13.74C194.1,111.86,196.77,112.93,199.93,115.64Z"/><path class="cls-2" d="M226.41,132.1H214.6l-2.42,6.72h-3.45l9.54-26.37h4.5l9.58,26.37h-3.53Zm-1-2.9-1.23-3.45c-1.82-5-3.05-8.62-3.71-10.74-.41,1.34-.9,2.9-1.53,4.72s-1.07,3.12-1.33,3.86l-.78,2.19-1.23,3.42Z"/></svg>