<svg width="20" height="20" viewBox="0 0 20 20" fill="none" xmlns="http://www.w3.org/2000/svg">
<path d="M6.66665 13.334V9.16732M9.99998 13.334V6.66732M13.3333 13.334V11.6673M15 3.33398H4.99998C4.55795 3.33398 4.13403 3.50958 3.82147 3.82214C3.50891 4.1347 3.33331 4.55862 3.33331 5.00065V15.0007C3.33331 15.4427 3.50891 15.8666 3.82147 16.1792C4.13403 16.4917 4.55795 16.6673 4.99998 16.6673H15C15.442 16.6673 15.8659 16.4917 16.1785 16.1792C16.4911 15.8666 16.6666 15.4427 16.6666 15.0007V5.00065C16.6666 4.55862 16.4911 4.1347 16.1785 3.82214C15.8659 3.50958 15.442 3.33398 15 3.33398V3.33398Z" stroke="white" stroke-width="1.5" stroke-linecap="round" stroke-linejoin="round"/>
</svg>
