<svg width="20" height="20" viewBox="0 0 20 20" fill="none" xmlns="http://www.w3.org/2000/svg">
<g clip-path="url(#clip0_3340_3993)">
<path d="M9.99998 12.4993C10.9205 12.4993 11.6666 11.7532 11.6666 10.8327C11.6666 9.91221 10.9205 9.16602 9.99998 9.16602C9.07951 9.16602 8.33331 9.91221 8.33331 10.8327C8.33331 11.7532 9.07951 12.4993 9.99998 12.4993Z" stroke="white" stroke-width="1.5" stroke-linecap="round" stroke-linejoin="round"/>
<path d="M11.2083 9.62435L12.9166 7.91602" stroke="white" stroke-width="1.5" stroke-linecap="round" stroke-linejoin="round"/>
<path d="M5.33333 16.6662C4.11512 15.698 3.22826 14.3747 2.79565 12.8799C2.36304 11.3851 2.4061 9.7928 2.91887 8.32356C3.43164 6.85433 4.38873 5.58098 5.65749 4.67997C6.92625 3.77897 8.44386 3.29492 10 3.29492C11.5561 3.29492 13.0737 3.77897 14.3425 4.67997C15.6113 5.58098 16.5684 6.85433 17.0811 8.32356C17.5939 9.7928 17.637 11.3851 17.2044 12.8799C16.7717 14.3747 15.8849 15.698 14.6667 16.6662H5.33333Z" stroke="white" stroke-width="1.5" stroke-linecap="round" stroke-linejoin="round"/>
</g>
<defs>
<clipPath id="clip0_3340_3993">
<rect width="20" height="20" fill="white"/>
</clipPath>
</defs>
</svg>
