<svg width="15" height="18" viewBox="0 0 15 18" fill="none" xmlns="http://www.w3.org/2000/svg">
<path d="M2.90769 7.07143C2.90769 6.90093 2.98428 6.73742 3.1206 6.61686C3.25693 6.4963 3.44182 6.42857 3.63462 6.42857H10.9038C11.0966 6.42857 11.2815 6.4963 11.4179 6.61686C11.5542 6.73742 11.6308 6.90093 11.6308 7.07143C11.6308 7.24192 11.5542 7.40544 11.4179 7.526C11.2815 7.64656 11.0966 7.71429 10.9038 7.71429H3.63462C3.44182 7.71429 3.25693 7.64656 3.1206 7.526C2.98428 7.40544 2.90769 7.24192 2.90769 7.07143ZM2.90769 10.2857C2.90769 9.94472 3.06087 9.61769 3.33351 9.37658C3.60616 9.13546 3.97595 9 4.36154 9H10.1769C10.5625 9 10.9323 9.13546 11.2049 9.37658C11.4776 9.61769 11.6308 9.94472 11.6308 10.2857V12.8571C11.6308 13.1981 11.4776 13.5252 11.2049 13.7663C10.9323 14.0074 10.5625 14.1429 10.1769 14.1429H4.36154C3.97595 14.1429 3.60616 14.0074 3.33351 13.7663C3.06087 13.5252 2.90769 13.1981 2.90769 12.8571V10.2857ZM4.36154 10.2857V12.8571H10.1769V10.2857H4.36154ZM3.03127 1.28571C3.18166 0.909543 3.46027 0.58388 3.82872 0.353608C4.19716 0.123336 4.6373 -0.000208903 5.08846 2.65161e-07H9.45C9.90117 -0.000208903 10.3413 0.123336 10.7097 0.353608C11.0782 0.58388 11.3568 0.909543 11.5072 1.28571H12.3577C12.9361 1.28571 13.4908 1.4889 13.8997 1.85058C14.3087 2.21226 14.5385 2.7028 14.5385 3.21429V16.0714C14.5385 16.5829 14.3087 17.0735 13.8997 17.4351C13.4908 17.7968 12.9361 18 12.3577 18H2.18077C1.60239 18 1.04771 17.7968 0.638733 17.4351C0.229759 17.0735 0 16.5829 0 16.0714V3.21429C0 2.7028 0.229759 2.21226 0.638733 1.85058C1.04771 1.4889 1.60239 1.28571 2.18077 1.28571H3.03127ZM5.08846 1.28571C4.89567 1.28571 4.71077 1.35344 4.57445 1.474C4.43812 1.59456 4.36154 1.75808 4.36154 1.92857C4.36154 2.09907 4.43812 2.26258 4.57445 2.38314C4.71077 2.5037 4.89567 2.57143 5.08846 2.57143H9.45C9.64279 2.57143 9.82769 2.5037 9.96401 2.38314C10.1003 2.26258 10.1769 2.09907 10.1769 1.92857C10.1769 1.75808 10.1003 1.59456 9.96401 1.474C9.82769 1.35344 9.64279 1.28571 9.45 1.28571H5.08846ZM3.03127 2.57143H2.18077C1.98798 2.57143 1.80308 2.63916 1.66676 2.75972C1.53043 2.88028 1.45385 3.04379 1.45385 3.21429V16.0714C1.45385 16.2419 1.53043 16.4054 1.66676 16.526C1.80308 16.6466 1.98798 16.7143 2.18077 16.7143H12.3577C12.5505 16.7143 12.7354 16.6466 12.8717 16.526C13.008 16.4054 13.0846 16.2419 13.0846 16.0714V3.21429C13.0846 3.04379 13.008 2.88028 12.8717 2.75972C12.7354 2.63916 12.5505 2.57143 12.3577 2.57143H11.5072C11.3568 2.9476 11.0782 3.27326 10.7097 3.50354C10.3413 3.73381 9.90117 3.85735 9.45 3.85714H5.08846C4.6373 3.85735 4.19716 3.73381 3.82872 3.50354C3.46027 3.27326 3.18166 2.9476 3.03127 2.57143Z" fill="#F99B28"/>
</svg>
