<svg width="15" height="13" viewBox="0 0 15 13" fill="none" xmlns="http://www.w3.org/2000/svg">
<path d="M7.0308 1.27416C7.19146 0.837861 7.80854 0.837863 7.9692 1.27416L9.28787 4.85515C9.36027 5.05175 9.54756 5.18237 9.75707 5.18237H13.8776C14.3769 5.18237 14.5678 5.83381 14.1474 6.1033L10.926 8.16847C10.7284 8.2951 10.6455 8.54202 10.7266 8.76219L11.9816 12.1703C12.1473 12.6201 11.6461 13.0227 11.2426 12.764L7.76985 10.5377C7.60539 10.4323 7.39461 10.4323 7.23015 10.5377L3.75744 12.764C3.35385 13.0227 2.85273 12.6201 3.01839 12.1703L4.27339 8.76219C4.35447 8.54202 4.27155 8.2951 4.07404 8.16848L0.85258 6.1033C0.432192 5.83381 0.623072 5.18237 1.12243 5.18237H5.24293C5.45244 5.18237 5.63973 5.05175 5.71213 4.85515L7.0308 1.27416Z" fill="#F99B28"/>
</svg>
