<svg width="21" height="26" viewBox="0 0 21 26" fill="none" xmlns="http://www.w3.org/2000/svg">
<path d="M4.2 10.2143C4.2 9.96801 4.31062 9.73183 4.50754 9.55769C4.70445 9.38355 4.97152 9.28571 5.25 9.28571H15.75C16.0285 9.28571 16.2955 9.38355 16.4925 9.55769C16.6894 9.73183 16.8 9.96801 16.8 10.2143C16.8 10.4606 16.6894 10.6967 16.4925 10.8709C16.2955 11.045 16.0285 11.1429 15.75 11.1429H5.25C4.97152 11.1429 4.70445 11.045 4.50754 10.8709C4.31062 10.6967 4.2 10.4606 4.2 10.2143ZM4.2 14.8571C4.2 14.3646 4.42125 13.8922 4.81508 13.5439C5.2089 13.1957 5.74304 13 6.3 13H14.7C15.257 13 15.7911 13.1957 16.1849 13.5439C16.5787 13.8922 16.8 14.3646 16.8 14.8571V18.5714C16.8 19.064 16.5787 19.5363 16.1849 19.8846C15.7911 20.2329 15.257 20.4286 14.7 20.4286H6.3C5.74304 20.4286 5.2089 20.2329 4.81508 19.8846C4.42125 19.5363 4.2 19.064 4.2 18.5714V14.8571ZM6.3 14.8571V18.5714H14.7V14.8571H6.3ZM4.3785 1.85714C4.59573 1.31378 4.99817 0.843382 5.53037 0.510767C6.06257 0.178152 6.69832 -0.000301749 7.35 3.83011e-07H13.65C14.3017 -0.000301749 14.9374 0.178152 15.4696 0.510767C16.0018 0.843382 16.4043 1.31378 16.6215 1.85714H17.85C18.6854 1.85714 19.4866 2.15064 20.0774 2.67306C20.6681 3.19548 21 3.90404 21 4.64286V23.2143C21 23.9531 20.6681 24.6617 20.0774 25.1841C19.4866 25.7065 18.6854 26 17.85 26H3.15C2.31457 26 1.51335 25.7065 0.922614 25.1841C0.331874 24.6617 0 23.9531 0 23.2143V4.64286C0 3.90404 0.331874 3.19548 0.922614 2.67306C1.51335 2.15064 2.31457 1.85714 3.15 1.85714H4.3785ZM7.35 1.85714C7.07152 1.85714 6.80445 1.95497 6.60754 2.12912C6.41062 2.30326 6.3 2.53944 6.3 2.78571C6.3 3.03199 6.41062 3.26817 6.60754 3.44231C6.80445 3.61645 7.07152 3.71429 7.35 3.71429H13.65C13.9285 3.71429 14.1955 3.61645 14.3925 3.44231C14.5894 3.26817 14.7 3.03199 14.7 2.78571C14.7 2.53944 14.5894 2.30326 14.3925 2.12912C14.1955 1.95497 13.9285 1.85714 13.65 1.85714H7.35ZM4.3785 3.71429H3.15C2.87152 3.71429 2.60445 3.81212 2.40754 3.98626C2.21062 4.1604 2.1 4.39658 2.1 4.64286V23.2143C2.1 23.4606 2.21062 23.6967 2.40754 23.8709C2.60445 24.045 2.87152 24.1429 3.15 24.1429H17.85C18.1285 24.1429 18.3955 24.045 18.5925 23.8709C18.7894 23.6967 18.9 23.4606 18.9 23.2143V4.64286C18.9 4.39658 18.7894 4.1604 18.5925 3.98626C18.3955 3.81212 18.1285 3.71429 17.85 3.71429H16.6215C16.4043 4.25765 16.0018 4.72805 15.4696 5.06066C14.9374 5.39328 14.3017 5.57173 13.65 5.57143H7.35C6.69832 5.57173 6.06257 5.39328 5.53037 5.06066C4.99817 4.72805 4.59573 4.25765 4.3785 3.71429Z" fill="#F99B28"/>
</svg>
