<svg width="30" height="30" viewBox="0 0 30 30" fill="none" xmlns="http://www.w3.org/2000/svg">
<g clip-path="url(#clip0_2915_2381)">
<path d="M24.9998 2.5H11.6665V6.66667H13.3332V4.16667H24.9998C25.4998 4.16667 25.8332 4.5 25.8332 5V14.1667C25.8332 14.6667 25.4998 15 24.9998 15H14.1665V20.8333H9.74984L6.6665 23.25V20.8333H4.1665C3.6665 20.8333 3.33317 20.5 3.33317 20V10.8333C3.33317 10.3333 3.6665 10 4.1665 10H14.9998V8.33333H4.1665C2.74984 8.33333 1.6665 9.41667 1.6665 10.8333V20C1.6665 21.4167 2.74984 22.5 4.1665 22.5H4.99984V26.75L10.2498 22.5H15.8332V16.6667H24.9998C26.4165 16.6667 27.4998 15.5833 27.4998 14.1667V5C27.4998 3.58333 26.4165 2.5 24.9998 2.5Z" fill="#F99B28"/>
<path d="M5.1665 19.0827H7.1665L7.6665 17.7493H10.2498L10.7498 19.0827H12.7498L9.9165 11.666H7.9165L5.1665 19.0827ZM8.9165 13.7493L9.74984 16.3327H8.08317L8.9165 13.7493Z" fill="#F99B28"/>
<path d="M16.6665 14.1667C17.5832 14.1667 18.8332 13.9167 19.9998 13.3333C21.1665 13.9167 22.4998 14.1667 23.3332 14.1667V12.5C23.3332 12.5 22.4998 12.5 21.5832 12.1667C22.5832 11.1667 23.3332 9.66667 23.3332 7.5V6.66667H20.8332V5H19.1665V6.66667H16.6665V8.33333H21.5832C21.4165 9.83333 20.7498 10.75 19.9998 11.3333C19.4998 10.9167 18.9998 10.3333 18.6665 9.58333H16.9165C17.2498 10.6667 17.7498 11.5 18.4165 12.1667C17.5832 12.5 16.8332 12.5 16.6665 12.5V14.1667Z" fill="#F99B28"/>
</g>
<defs>
<clipPath id="clip0_2915_2381">
<rect width="30" height="30" fill="white"/>
</clipPath>
</defs>
</svg>
