<svg width="15" height="15" viewBox="0 0 15 15" fill="none" xmlns="http://www.w3.org/2000/svg">
<path fill-rule="evenodd" clip-rule="evenodd" d="M4.40224 0.0920452C3.18133 0.147133 2.1231 0.44565 1.26861 1.29653C0.41114 2.15188 0.11636 3.21419 0.0611356 4.4224C0.0268068 5.17651 -0.173942 10.8736 0.408155 12.3677C0.800698 13.3757 1.57384 14.1506 2.59102 14.5444C3.06565 14.729 3.60745 14.8541 4.40224 14.8906C11.0479 15.1913 13.5113 15.0276 14.5501 12.3677C14.7345 11.8942 14.8613 11.353 14.8964 10.5602C15.2001 3.89758 14.8472 2.45338 13.6889 1.29653C12.7703 0.38014 11.6897 -0.243693 4.40224 0.0920452ZM10.5673 3.51758C10.5673 4.0104 10.9681 4.4109 11.4629 4.4109C11.9577 4.4109 12.3592 4.0104 12.3592 3.51758C12.3592 3.02477 11.9577 2.62427 11.4629 2.62427C10.9681 2.62427 10.5673 3.02477 10.5673 3.51758ZM3.64696 7.49061C3.64696 9.60181 5.36265 11.3133 7.4791 11.3133C9.59555 11.3133 11.3112 9.60181 11.3112 7.49061C11.3112 5.3794 9.59555 3.6687 7.4791 3.6687C5.36265 3.6687 3.64696 5.3794 3.64696 7.49061ZM4.99168 7.49095C4.99168 6.1212 6.10513 5.00977 7.47903 5.00977C8.85293 5.00977 9.96638 6.1212 9.96638 7.49095C9.96638 8.86145 8.85293 9.97288 7.47903 9.97288C6.10513 9.97288 4.99168 8.86145 4.99168 7.49095ZM4.46335 13.5513C3.73573 13.5186 3.34095 13.3972 3.07751 13.2952C2.41482 13.0377 1.91705 12.5419 1.66108 11.8831C1.21779 10.7478 1.3648 5.35589 1.40436 4.48341C1.44316 3.62881 1.6163 2.8479 2.21929 2.24491C2.96557 1.50048 3.92976 1.13571 10.4948 1.43199C11.3515 1.4707 12.1344 1.64341 12.7388 2.24491C13.4851 2.98934 13.8553 3.96082 13.5538 10.5006C13.5209 11.2265 13.3993 11.6203 13.2971 11.8831C12.6217 13.6139 11.0679 13.8543 4.46335 13.5513Z" fill="#FFFFFE"/>
</svg>
