<svg width="17" height="17" viewBox="0 0 17 17" fill="none" xmlns="http://www.w3.org/2000/svg">
<path fill-rule="evenodd" clip-rule="evenodd" d="M16.7142 16.7136H13.4285V10.9644C13.4285 9.38729 12.7328 8.50754 11.485 8.50754C10.1272 8.50754 9.32136 9.42425 9.32136 10.9644V16.7136H6.03564V6.03504H9.32136V7.23596C9.32136 7.23596 10.3523 5.42718 12.6753 5.42718C14.9991 5.42718 16.7142 6.84496 16.7142 9.77911C16.7142 12.7124 16.7142 16.7136 16.7142 16.7136ZM2.29157 4.32741C1.18347 4.32741 0.285645 3.42219 0.285645 2.30587C0.285645 1.19037 1.18347 0.285156 2.29157 0.285156C3.39886 0.285156 4.29668 1.19037 4.29668 2.30587C4.2975 3.42219 3.39886 4.32741 2.29157 4.32741ZM0.285645 16.7137H4.39279V6.03516H0.285645V16.7137Z" fill="#FFFFFE"/>
</svg>
