<svg width="17" height="13" viewBox="0 0 17 13" fill="none" xmlns="http://www.w3.org/2000/svg">
<path fill-rule="evenodd" clip-rule="evenodd" d="M5.11062 13C11.2426 13 14.5966 7.99797 14.5966 3.66069C14.5966 3.5183 14.5966 3.37671 14.5868 3.23592C15.2392 2.77195 15.8023 2.196 16.25 1.53684C15.6423 1.80242 14.9963 1.97681 14.3357 2.05361C15.0312 1.64324 15.5521 0.998483 15.8015 0.237739C15.1466 0.620111 14.4308 0.889691 13.6841 1.03448C12.4215 -0.287022 10.3098 -0.351017 8.96675 0.892091C8.10144 1.69363 7.73338 2.88874 8.00231 4.02866C5.32188 3.89587 2.82425 2.64956 1.131 0.599313C0.246187 2.0992 0.69875 4.01746 2.16369 4.98059C1.63313 4.96539 1.11394 4.8246 0.65 4.57022V4.61182C0.650813 6.1741 1.76962 7.5196 3.32475 7.82918C2.834 7.96117 2.31888 7.98037 1.82 7.88518C2.25631 9.22268 3.50837 10.1386 4.93431 10.165C3.75375 11.0785 2.29531 11.5745 0.793813 11.5729C0.528938 11.5721 0.264062 11.5569 0 11.5257C1.52506 12.4888 3.29875 13 5.11062 12.9976" fill="#FFFFFE"/>
</svg>
